<svg xmlns="http://www.w3.org/2000/svg" viewBox="0 0 512 512">
  <title>PDF Tool Kit</title>
  <rect width="512" height="512" rx="96" fill="#16181D"/>
  <!-- the document, with a folded corner -->
  <path d="M132 76h156l84 84v248a24 24 0 0 1-24 24H132a24 24 0 0 1-24-24V100a24 24 0 0 1 24-24z" fill="#F7F8FA"/>
  <path d="M288 76v60a24 24 0 0 0 24 24h60z" fill="#C9CFDC"/>
  <!-- lines of text -->
  <rect x="148" y="196" width="168" height="16" rx="8" fill="#6E8BFA"/>
  <rect x="148" y="236" width="196" height="16" rx="8" fill="#6E8BFA"/>
  <rect x="148" y="276" width="120" height="16" rx="8" fill="#6E8BFA"/>
  <!-- a signature stroke the pen is drawing -->
  <path d="M148 352c22-30 34-30 44-6s26 18 40-8" fill="none" stroke="#16181D" stroke-width="11" stroke-linecap="round" stroke-linejoin="round"/>
  <!-- the pen -->
  <g transform="translate(318 292) rotate(45)">
    <path d="M-27-170h54a14 14 0 0 1 14 14V32L0 106l-41-74V-156a14 14 0 0 1 14-14z" fill="#16181D"/>
    <path d="M-20-164h40a8 8 0 0 1 8 8V24H-28V-156a8 8 0 0 1 8-8z" fill="#FFB612"/>
    <rect x="-28" y="-104" width="56" height="14" fill="#E5A20F"/>
    <path d="M-28 24h56L0 90z" fill="#F7F8FA"/>
    <path d="M-9 56h18L0 90z" fill="#16181D"/>
  </g>
</svg>
